<svg version="1.1" id="Layer_1" xmlns="http://www.w3.org/2000/svg" xmlns:xlink="http://www.w3.org/1999/xlink" x="0px" y="0px"
	 width="100%" viewBox="0 0 500 500" enable-background="new 0 0 500 500" xml:space="preserve">
<path fill="#000000" opacity="1.000000" stroke="none" 
	d="
M222.000000,501.000000 
	C148.000015,501.000000 74.500038,501.000000 1.000039,501.000000 
	C1.000026,334.333405 1.000026,167.666779 1.000013,1.000129 
	C167.666565,1.000086 334.333130,1.000086 500.999756,1.000043 
	C500.999847,167.666534 500.999847,334.333069 500.999939,500.999817 
	C408.166656,501.000000 315.333344,501.000000 222.000000,501.000000 
M302.506226,196.617050 
	C302.506226,196.617050 302.432190,196.390732 302.175781,195.761475 
	C300.516144,194.181152 298.091125,190.943481 297.324707,191.297409 
	C293.248138,193.179886 289.587250,195.962448 285.437714,198.657303 
	C283.064362,197.323853 280.041992,195.625763 277.287567,193.203629 
	C277.859589,190.474396 278.431610,187.745148 279.681030,184.696014 
	C280.682556,179.924438 277.157257,179.014984 273.880646,178.128540 
	C270.362396,177.176712 269.035217,179.484512 267.999603,182.348480 
	C267.080994,184.888748 265.793152,187.295502 264.674072,189.748596 
	C261.686066,189.095398 258.920532,188.490814 256.074585,187.150558 
	C256.009552,186.417542 255.944504,185.684509 255.967072,184.327286 
	C255.650421,183.855515 255.333771,183.383743 255.030945,182.084671 
	C254.980820,180.710602 254.930695,179.336517 254.977997,177.152466 
	C251.789612,173.624023 245.562119,174.089264 243.930679,178.815384 
	C243.569458,182.177536 243.208252,185.539703 241.987915,188.977600 
	C239.102371,189.186905 236.216843,189.396210 233.466934,189.595688 
	C232.292709,186.943253 231.396866,184.119995 229.850113,181.715439 
	C228.868591,180.189545 226.631653,178.077316 225.462891,178.354950 
	C223.005692,178.938553 219.016907,178.509506 218.970245,183.799957 
	C219.611053,187.511200 220.251862,191.222458 220.234619,195.207031 
	C212.745438,199.202499 212.745422,199.202515 207.594528,194.086716 
	C203.222656,189.744629 199.477570,190.773010 196.949356,197.753448 
	C198.691666,201.519577 200.433990,205.285706 201.858948,209.678879 
	C200.349579,211.472260 198.840195,213.265656 197.375793,215.005630 
	C195.122269,214.107620 193.024994,213.385757 191.025375,212.454239 
	C184.320343,209.330719 182.963989,211.118912 181.026306,216.315353 
	C179.445648,216.542542 177.865417,216.963974 176.284271,216.967453 
	C155.986847,217.012054 135.689285,216.996933 115.391762,216.996933 
	C113.645462,216.996933 111.899170,216.996933 110.350365,216.996933 
	C110.350365,243.428497 110.350365,269.123657 110.350365,294.802856 
	C128.489960,294.802856 146.278610,294.802856 164.677765,295.188751 
	C168.425735,300.817535 172.173706,306.446320 176.000137,312.771088 
	C181.880356,318.487274 187.084366,325.201050 193.768265,329.731537 
	C213.388672,343.030731 234.880508,349.975372 259.129059,347.124908 
	C280.187592,344.649445 298.148743,335.820435 312.856171,321.206604 
	C320.468353,313.642883 325.799622,303.783630 333.078491,294.958069 
	C350.242249,294.957855 367.406982,294.861359 384.569092,295.029755 
	C388.522858,295.068573 390.141541,294.209412 390.100342,289.794037 
	C389.884125,266.633301 390.004089,243.469467 389.983612,220.306732 
	C389.982666,219.217041 389.755951,218.127563 389.647125,217.152054 
	C370.477509,217.152054 351.654449,217.152054 332.440826,216.975677 
	C332.440826,216.975677 332.024475,216.861099 331.985748,216.134079 
	C325.543884,202.265732 316.756256,190.242981 304.460724,180.941833 
	C284.814514,166.080124 263.092072,159.179169 238.194748,161.808487 
	C223.949921,163.312851 210.949722,167.418045 198.748550,174.660660 
	C188.096344,180.983810 178.938889,188.976807 171.591827,198.935211 
	C167.840820,204.019455 168.055344,204.243591 174.750687,207.045731 
	C180.859329,196.853271 188.940811,188.341537 199.092834,182.035522 
	C211.058273,174.603088 223.754562,169.485641 238.064423,167.759735 
	C251.607544,166.126282 264.618073,167.213303 277.180206,171.781326 
	C299.776398,179.998138 316.275818,195.325516 326.097687,216.981979 
	C323.701843,216.644852 321.306000,216.307739 318.859344,215.269501 
	C315.906403,209.873184 312.200928,208.724701 306.885468,212.487030 
	C302.326843,215.713684 299.379456,212.900803 297.288971,208.223648 
	C299.137451,204.795456 300.985931,201.367264 303.014984,197.376389 
	C302.778595,197.166138 302.542206,196.955887 302.506226,196.617050 
z"/>
<path fill="#AEAEAD" opacity="1.000000" stroke="none" 
	d="
M220.892654,194.933701 
	C220.251862,191.222458 219.611053,187.511200 219.413132,183.411316 
	C227.066116,180.877930 227.066116,180.877930 229.971924,186.830292 
	C232.805359,192.634384 236.867172,194.188019 242.909546,191.630402 
	C244.772568,190.841812 245.528000,189.749069 242.847046,188.901855 
	C243.208252,185.539703 243.569458,182.177536 244.415680,178.380310 
	C248.227295,177.950974 251.553925,177.956711 254.880554,177.962448 
	C254.930695,179.336517 254.980820,180.710602 255.049286,182.790939 
	C255.338242,183.981964 255.608856,184.466721 255.879456,184.951492 
	C255.944504,185.684509 256.009552,186.417542 255.851379,187.766754 
	C256.465729,189.546722 257.080811,191.353104 258.188477,191.736481 
	C260.298950,192.466995 262.690613,192.385223 265.404663,192.690018 
	C266.525665,190.518433 267.787018,188.235458 268.902283,185.883209 
	C271.779663,179.814468 274.588013,179.556854 279.003662,185.015915 
	C278.431610,187.745148 277.859589,190.474396 277.016907,193.867371 
	C276.772461,199.615555 281.943604,199.089645 284.540344,201.340454 
	C285.240997,201.947739 288.292328,200.852310 289.466827,199.714752 
	C293.010040,196.283051 295.995209,191.819901 301.536102,196.700760 
	C301.653046,196.803757 302.125549,196.503082 302.432190,196.390732 
	C302.432190,196.390732 302.506226,196.617050 302.339600,196.927704 
	C302.393402,197.471924 302.613892,197.705505 302.834381,197.939087 
	C300.985931,201.367264 299.137451,204.795456 296.902252,208.618591 
	C294.088379,212.610977 298.569794,213.189606 299.507294,215.313171 
	C299.940979,216.295609 302.953339,217.206757 304.031403,216.655029 
	C308.992279,214.116226 313.730072,211.880798 318.910156,215.970612 
	C321.306000,216.307739 323.701843,216.644852 326.730835,217.056610 
	C327.364014,217.131241 327.778412,217.367081 327.845703,217.717163 
	C329.855621,223.542221 332.305115,228.896759 333.640594,234.516052 
	C336.918549,248.308716 338.792877,262.232086 334.036316,275.819061 
	C331.888000,273.567810 329.852234,271.669678 327.702423,269.665253 
	C329.116272,269.366821 331.074036,268.953583 333.245087,268.495331 
	C332.148102,263.565796 328.687897,262.086487 324.473999,261.641876 
	C319.907257,261.160034 315.552185,261.753754 313.449402,266.442993 
	C311.131775,271.611481 314.692535,274.450287 319.306183,276.901764 
	C316.400055,277.267426 314.340302,277.526581 312.090637,277.809662 
	C312.527435,282.247833 315.175629,284.672577 318.526062,284.742340 
	C322.992889,284.835419 327.487854,283.578674 332.004883,283.293091 
	C330.976746,287.047180 329.914429,290.409912 328.607025,293.923889 
	C327.916138,294.428802 327.470367,294.782501 326.576294,295.058472 
	C323.306488,295.026978 319.346710,293.905823 317.877136,295.338654 
	C313.497925,299.608459 310.026245,297.437317 305.913269,295.497681 
	C303.294952,294.262909 300.336884,294.282471 298.429047,297.179321 
	C296.657715,299.868927 294.294464,302.530853 297.934784,305.694702 
	C298.968201,306.592834 299.365204,308.195557 300.149780,309.413513 
	C301.778778,311.942352 302.004852,314.063416 299.101349,315.986420 
	C296.470184,317.729095 294.118225,319.402405 291.511688,316.014618 
	C290.607239,314.839020 289.553009,313.664520 288.317352,312.886200 
	C286.699951,311.867432 284.265991,310.120575 283.187866,310.667450 
	C280.463623,312.049347 276.303345,313.173370 278.009613,318.003571 
	C278.545410,319.520233 278.654266,321.219025 279.352051,322.641388 
	C281.556702,327.135376 278.058441,327.877350 275.289276,329.276489 
	C272.384094,330.744354 270.388062,330.212402 269.006348,327.148743 
	C267.607971,324.048187 266.003998,321.040375 264.509613,318.031189 
	C263.203339,318.406464 262.139465,318.882202 261.037445,318.999573 
	C255.962616,319.540100 253.930984,322.223358 254.978287,327.237732 
	C255.078033,327.715302 254.971039,328.233337 254.985947,328.731812 
	C255.078186,331.814850 254.018341,334.049713 250.546066,333.939514 
	C247.674042,333.848328 243.882172,335.266754 243.870758,329.885437 
	C243.863892,326.645264 243.020294,323.406860 242.557114,320.166931 
	C239.596741,319.414795 236.631943,318.663361 233.987793,317.993195 
	C232.155838,321.441284 230.402649,324.517548 228.865952,327.698425 
	C227.425522,330.679993 225.312897,330.427063 222.853577,329.322388 
	C219.449783,327.793488 217.950119,325.719452 219.493591,321.728912 
	C220.504547,319.115173 220.461090,316.093628 220.787689,313.931396 
	C215.980728,309.000549 211.886017,308.663330 207.912338,314.356659 
	C206.807053,315.940277 203.497253,317.831543 202.478333,317.268036 
	C199.872910,315.827087 196.329269,314.227509 197.459351,309.955566 
	C199.933411,307.325256 202.092865,304.723358 204.099106,302.008209 
	C204.183899,301.893433 202.845459,300.727020 202.139832,299.674866 
	C199.843903,294.772858 196.495178,293.935394 191.900970,295.856567 
	C188.762970,297.168762 185.203735,300.473755 182.293411,295.223267 
	C182.068832,294.818115 180.730072,294.960449 179.910156,294.967133 
	C175.598663,295.002106 171.287460,295.075348 166.707306,295.003723 
	C165.648056,294.849060 164.857666,294.825958 164.067276,294.802856 
	C146.278610,294.802856 128.489960,294.802856 110.350365,294.802856 
	C110.350365,269.123657 110.350365,243.428497 110.350365,216.996933 
	C111.899170,216.996933 113.645462,216.996933 115.391762,216.996933 
	C135.689285,216.996933 155.986847,217.012054 176.284271,216.967453 
	C177.865417,216.963974 179.445648,216.542542 181.778732,216.139801 
	C185.000717,213.544449 187.718628,213.398407 190.527634,215.245987 
	C194.770142,218.036453 198.628418,218.365265 201.925751,214.186249 
	C202.017136,217.108948 202.088898,219.614960 202.100464,222.121246 
	C202.112686,224.773987 202.067581,227.427002 201.990082,230.444397 
	C200.607651,236.264099 199.282700,241.719284 197.823303,247.482971 
	C198.396408,248.518524 199.045853,249.791885 199.821991,249.874451 
	C202.615662,250.171677 205.452042,250.067139 208.322098,250.462524 
	C209.548813,251.274948 210.725708,251.739243 211.901215,252.648483 
	C211.925903,256.113495 211.951996,259.133575 211.518921,262.062225 
	C205.337463,261.970795 199.615173,261.970795 192.960617,261.970795 
	C192.960617,268.607239 192.960617,274.807098 192.610977,281.018127 
	C191.237961,281.575348 190.214569,282.121368 189.191193,282.667419 
	C189.375534,282.980469 189.559875,283.293518 189.744217,283.606567 
	C190.816559,283.402191 191.888901,283.197815 193.147705,283.358704 
	C194.614044,284.157593 195.875565,284.887604 197.177246,284.968140 
	C200.772995,285.190491 204.385513,285.141571 208.003479,285.552063 
	C210.507187,290.573212 213.027161,295.112915 218.695068,296.780731 
	C222.704147,297.960388 226.580215,299.592194 230.680664,301.082123 
	C230.351089,302.645752 230.078018,303.941345 229.804947,305.236938 
	C230.318161,305.461090 230.831375,305.685242 231.344589,305.909393 
	C231.969635,304.438110 232.594681,302.966858 233.496063,301.711243 
	C235.454483,303.681244 237.136551,305.435547 238.970169,307.502625 
	C248.294846,314.042816 257.788055,313.455994 265.510010,306.004883 
	C270.148468,303.042236 270.575287,298.441895 271.528320,293.693787 
	C271.808197,290.674408 271.897919,287.960297 272.355286,285.188080 
	C275.048218,285.130005 277.373474,285.130005 279.688904,285.130005 
	C279.941498,282.406494 280.126709,280.409119 280.333710,278.177307 
	C282.440857,280.776642 284.212036,282.961548 285.938873,285.478943 
	C283.893158,288.218292 281.891754,290.625092 279.722626,293.233643 
	C280.295013,294.162628 280.943268,295.214783 281.561218,296.217743 
	C282.789246,295.383423 283.847961,294.664093 285.131775,294.158264 
	C285.889618,293.516663 286.422424,292.661560 287.106628,291.559082 
	C288.105774,290.529755 288.953583,289.747833 290.053833,288.876343 
	C290.531464,288.518860 290.756622,288.250946 290.983459,287.985291 
	C290.985138,287.987579 290.971619,287.972076 291.322144,287.908203 
	C292.076111,286.835632 292.479523,285.826965 292.890106,284.860046 
	C292.897278,284.901825 292.813141,284.891510 293.168304,284.865295 
	C294.004517,283.879944 294.485565,282.920837 294.985168,281.971191 
	C295.003693,281.980652 294.963837,281.983612 295.183929,281.870300 
	C295.676575,281.552124 295.868744,281.288605 295.970154,280.980896 
	C295.959839,280.995300 295.950989,280.960144 296.289276,280.972107 
	C297.078674,280.988708 297.529755,280.993347 298.097351,281.393890 
	C299.360718,288.029510 303.647034,283.937592 306.619568,284.850189 
	C306.619568,276.958344 306.619568,269.591583 306.619568,262.264038 
	C303.686646,262.264038 301.115936,262.264038 298.415466,262.264038 
	C298.210968,264.055206 298.044098,265.516693 297.536194,267.056030 
	C295.045227,271.140076 292.895325,275.146210 290.490875,278.952087 
	C290.447876,277.388855 290.265381,275.779114 290.938019,274.704803 
	C294.155945,269.565338 292.219818,263.942291 286.352844,262.330841 
	C284.647430,261.862396 282.790314,261.946411 280.990234,261.423187 
	C279.329742,259.392212 277.695221,257.701691 276.029449,256.042603 
	C274.706787,254.725204 273.345856,253.446243 272.299011,251.991943 
	C272.842560,251.215637 273.088989,250.597610 273.762054,249.976776 
	C276.777100,249.981125 279.365509,249.988297 282.080261,250.341232 
	C283.470215,251.197617 284.733795,251.708206 285.997437,252.593796 
	C286.089447,254.335342 286.181427,255.701889 286.273376,257.068451 
	C286.678864,257.098999 287.084351,257.129547 287.489868,257.160095 
	C287.660828,255.512985 287.831818,253.865891 288.339600,252.115173 
	C289.180176,251.332321 289.683990,250.653122 290.637543,249.977478 
	C294.184723,249.979828 297.289276,250.084396 300.372894,249.877365 
	C300.911133,249.841232 301.361267,248.493256 301.890808,247.349930 
	C300.664734,235.135117 295.291565,225.347870 286.921021,216.653275 
	C285.095520,215.003494 283.476135,213.637772 281.474731,211.949844 
	C280.391296,213.529007 279.604340,214.676025 278.550323,216.212311 
	C280.278503,217.048676 281.568573,217.673035 282.932373,218.623703 
	C285.322449,222.366287 287.638763,225.782547 289.542877,229.087891 
	C286.425812,229.692078 283.720917,230.407181 280.897827,230.801727 
	C276.026794,224.655853 270.250427,220.283203 262.986450,217.697083 
	C262.916718,217.244385 262.883698,217.064117 262.911560,216.531494 
	C263.983368,214.117676 264.994263,212.056213 266.315369,209.857437 
	C267.451324,208.353897 268.277100,206.987656 269.114777,205.601730 
	C260.083649,200.836365 246.848175,199.241364 231.036835,203.979004 
	C229.024368,200.111053 227.795898,195.795120 222.268448,195.802795 
	C221.655365,195.358032 221.274017,195.145859 220.892654,194.933701 
M174.088440,261.863342 
	C171.784637,261.863342 169.480820,261.863342 166.896088,261.863342 
	C166.896088,264.382080 166.896088,266.474396 166.896088,268.776733 
	C169.002213,268.936859 170.890411,269.080414 173.252228,269.259949 
	C173.252228,274.683990 173.252228,279.759705 173.252228,284.777496 
	C176.218979,284.777496 178.669052,284.777496 181.610687,284.777496 
	C181.610687,279.504669 181.610687,274.450775 181.610687,269.357849 
	C183.977966,269.062439 185.868057,268.826599 187.613571,268.608795 
	C187.613571,266.225159 187.613571,264.301208 187.613571,261.824921 
	C184.514343,261.824921 181.722336,261.824921 179.380493,261.368439 
	C179.508759,260.131836 180.209579,258.511566 179.677460,257.717468 
	C173.847610,249.016907 167.867569,240.415222 161.790314,231.885010 
	C161.181396,231.030319 159.273376,230.085648 158.631409,230.427628 
	C152.436432,233.727631 146.383575,237.294449 140.290085,240.784988 
	C140.522614,241.230133 140.755142,241.675278 140.987656,242.120422 
	C146.895126,239.436722 152.802597,236.753021 158.866608,233.998199 
	C164.458633,243.636017 169.708374,252.683899 174.088440,261.863342 
M144.486542,285.024872 
	C150.653702,286.206512 147.719299,280.530731 149.376099,277.722046 
	C150.898941,279.979401 151.734390,282.260040 153.365463,283.349060 
	C155.074768,284.490356 157.532272,284.688354 159.696930,284.854797 
	C160.291580,284.900513 161.562592,283.369629 161.581665,282.540527 
	C161.737137,275.780518 161.669174,269.015381 161.669174,261.924683 
	C158.975769,261.924683 156.085251,261.100037 155.106812,262.116272 
	C153.606033,263.675079 153.421082,266.500732 152.682938,268.790497 
	C146.214554,261.386871 146.214554,261.386871 140.417618,262.600983 
	C140.417618,269.131409 140.295776,275.776550 140.559372,282.406372 
	C140.595627,283.317963 142.545990,284.153412 144.486542,285.024872 
M133.609955,274.297821 
	C133.864624,266.105591 126.466393,272.578064 123.829185,268.776123 
	C127.306824,268.616119 130.524368,268.468048 133.795715,268.317505 
	C133.795715,266.000183 133.795715,264.110291 133.795715,262.158203 
	C127.529167,262.158203 121.614288,262.158203 115.464371,262.158203 
	C115.464371,269.826324 115.464371,277.204590 115.464371,284.765686 
	C121.870995,284.765686 127.940697,284.765686 134.163269,284.765686 
	C136.529129,274.018585 127.061829,280.517883 124.350548,277.606567 
	C127.338036,276.795959 130.433899,275.955933 133.609955,274.297821 
M317.552734,238.998749 
	C319.863708,238.866425 322.174713,238.734100 324.485687,238.601776 
	C320.163239,234.373001 315.987549,237.330933 311.784088,237.420135 
	C311.753998,237.847214 311.723907,238.274292 311.693817,238.701370 
	C313.353180,238.801819 315.012573,238.902283 317.552734,238.998749 
M179.784683,235.985275 
	C177.991776,236.289749 176.198868,236.594223 174.405960,236.898682 
	C174.521973,237.553009 174.637985,238.207336 174.753983,238.861649 
	C179.041458,235.661407 184.096176,241.162628 188.357437,237.665131 
	C188.341095,237.106308 188.324753,236.547501 188.308395,235.988693 
	C185.763962,235.988693 183.219513,235.988693 179.784683,235.985275 
M182.756241,286.956604 
	C182.839172,287.491425 182.922104,288.026215 183.005035,288.561035 
	C184.634720,287.514709 186.264404,286.468384 187.894089,285.422058 
	C187.637451,285.020386 187.380814,284.618683 187.124176,284.217010 
	C185.820679,284.980621 184.517181,285.744263 182.756241,286.956604 
M138.526199,242.376801 
	C138.526199,242.376801 138.417358,242.553879 138.417358,242.553879 
	C138.417358,242.553879 138.645599,242.531998 138.526199,242.376801 
M136.380753,243.485107 
	C136.380753,243.485107 136.565536,243.583618 136.565536,243.583618 
	C136.565536,243.583618 136.535721,243.396332 136.380753,243.485107 
z"/>
<path fill="#ADADAC" opacity="1.000000" stroke="none" 
	d="
M332.831421,217.152054 
	C351.654449,217.152054 370.477509,217.152054 389.647125,217.152054 
	C389.755951,218.127563 389.982666,219.217041 389.983612,220.306732 
	C390.004089,243.469467 389.884125,266.633301 390.100342,289.794037 
	C390.141541,294.209412 388.522858,295.068573 384.569092,295.029755 
	C367.406982,294.861359 350.242249,294.957855 332.552307,294.739380 
	C332.026154,294.520691 331.911377,294.074066 332.077911,293.752045 
	C334.542847,287.216553 336.841278,281.003113 339.240417,275.253418 
	C339.341125,278.664093 339.341125,281.611023 339.341125,284.642639 
	C346.221802,284.642639 352.413300,284.642639 358.582306,284.642639 
	C360.509003,273.754059 351.102905,280.686584 347.648682,276.764313 
	C350.299744,276.764313 352.378723,276.673523 354.446472,276.787292 
	C357.031372,276.929535 358.466736,275.738556 357.740814,273.298981 
	C357.367981,272.046021 355.840515,270.660095 354.551056,270.268372 
	C352.628357,269.684296 350.454803,269.925995 348.387970,269.816315 
	C348.413300,269.375641 348.438629,268.934998 348.463959,268.494324 
	C351.061951,268.494324 353.958862,269.192535 356.154419,268.252533 
	C357.655640,267.609772 358.178925,264.683014 359.663177,261.738159 
	C352.153137,261.738159 346.522491,261.738159 340.903717,261.294861 
	C340.306213,253.773636 340.248047,246.591888 338.939270,239.645767 
	C337.505188,232.034454 334.916779,224.640656 332.831421,217.152054 
M379.075714,262.162018 
	C375.810425,262.217499 372.258575,261.504181 369.373444,262.579590 
	C367.191132,263.393005 364.679657,266.389160 364.490051,268.600464 
	C364.308960,270.712616 366.848175,273.131348 368.388428,275.273865 
	C368.862549,275.933380 369.983765,276.127716 371.660553,276.955658 
	C368.428589,277.275879 366.135345,277.503113 363.766113,277.737854 
	C365.205750,283.914703 369.357300,286.116089 376.657684,285.229584 
	C380.916290,284.712433 384.629028,283.247955 385.540924,278.607635 
	C386.452301,273.969849 383.260071,271.823944 379.456177,270.611572 
	C381.402496,269.836823 383.234589,269.107544 386.174011,267.937500 
	C383.427521,265.585327 381.603333,264.023010 379.075714,262.162018 
z"/>
<path fill="#FF9800" opacity="1.000000" stroke="none" 
	d="
M327.778412,217.367065 
	C327.778412,217.367081 327.364014,217.131241 327.159790,217.008347 
	C316.275818,195.325516 299.776398,179.998138 277.180206,171.781326 
	C264.618073,167.213303 251.607544,166.126282 238.064423,167.759735 
	C223.754562,169.485641 211.058273,174.603088 199.092834,182.035522 
	C188.940811,188.341537 180.859329,196.853271 174.750687,207.045731 
	C168.055344,204.243591 167.840820,204.019455 171.591827,198.935211 
	C178.938889,188.976807 188.096344,180.983810 198.748550,174.660660 
	C210.949722,167.418045 223.949921,163.312851 238.194748,161.808487 
	C263.092072,159.179169 284.814514,166.080124 304.460724,180.941833 
	C316.756256,190.242981 325.543884,202.265732 331.589264,216.596069 
	C330.054657,217.161057 328.916534,217.264053 327.778412,217.367065 
z"/>
<path fill="#FF9800" opacity="1.000000" stroke="none" 
	d="
M331.911377,294.074066 
	C331.911377,294.074066 332.026154,294.520691 332.093781,294.741089 
	C325.799622,303.783630 320.468353,313.642883 312.856171,321.206604 
	C298.148743,335.820435 280.187592,344.649445 259.129059,347.124908 
	C234.880508,349.975372 213.388672,343.030731 193.768265,329.731537 
	C187.084366,325.201050 181.880356,318.487274 176.153137,312.235474 
	C176.434174,311.574646 176.562225,311.449432 176.937271,311.541534 
	C181.699814,316.157745 185.823929,321.071716 190.805649,324.857056 
	C204.713715,335.425049 220.142227,342.135559 237.840363,344.251099 
	C256.221252,346.448273 273.071625,343.197540 289.139893,334.442108 
	C299.566223,328.760925 308.836426,321.606384 316.100586,312.232941 
	C320.226227,306.909332 323.414276,300.859131 327.024536,295.136169 
	C327.470367,294.782501 327.916138,294.428802 328.985657,293.994690 
	C330.376678,293.967560 331.144043,294.020813 331.911377,294.074066 
z"/>
<path fill="#D0A25F" opacity="1.000000" stroke="none" 
	d="
M332.077911,293.752045 
	C331.144043,294.020813 330.376678,293.967560 329.230713,293.843445 
	C329.914429,290.409912 330.976746,287.047180 332.016052,283.328979 
	C331.993042,282.973480 331.923676,283.002533 332.161591,282.889221 
	C332.574951,282.476410 332.750427,282.176941 333.018890,281.517639 
	C333.457550,279.495972 333.803192,277.834076 334.148834,276.172211 
	C338.792877,262.232086 336.918549,248.308716 333.640594,234.516052 
	C332.305115,228.896759 329.855621,223.542221 327.845703,217.717148 
	C328.916534,217.264053 330.054657,217.161057 331.608643,216.959564 
	C332.024475,216.861099 332.440826,216.975677 332.636108,217.063873 
	C334.916779,224.640656 337.505188,232.034454 338.939270,239.645767 
	C340.248047,246.591888 340.306213,253.773636 340.554932,261.542114 
	C339.842743,266.418335 339.491211,270.604004 339.139679,274.789642 
	C336.841278,281.003113 334.542847,287.216553 332.077911,293.752045 
z"/>
<path fill="#AEAEAD" opacity="1.000000" stroke="none" 
	d="
M202.176300,209.051834 
	C200.433990,205.285706 198.691666,201.519577 197.370331,197.375031 
	C202.015060,193.367004 205.628372,194.098175 208.810623,198.468430 
	C209.763885,199.777557 210.900970,200.952866 211.910217,202.515656 
	C209.253998,204.892029 206.641357,206.942215 203.719818,208.996246 
	C202.999374,209.017334 202.587845,209.034576 202.176300,209.051834 
z"/>
<path fill="#E0E0E0" opacity="1.000000" stroke="none" 
	d="
M279.342346,184.855957 
	C274.588013,179.556854 271.779663,179.814468 268.902283,185.883209 
	C267.787018,188.235458 266.525665,190.518433 265.404663,192.690018 
	C262.690613,192.385223 260.298950,192.466995 258.188477,191.736481 
	C257.080811,191.353104 256.465729,189.546722 255.891571,188.134598 
	C258.920532,188.490814 261.686066,189.095398 264.674072,189.748596 
	C265.793152,187.295502 267.080994,184.888748 267.999603,182.348480 
	C269.035217,179.484512 270.362396,177.176712 273.880646,178.128540 
	C277.157257,179.014984 280.682556,179.924438 279.342346,184.855957 
z"/>
<path fill="#E0E0E0" opacity="1.000000" stroke="none" 
	d="
M302.303986,196.076111 
	C302.125549,196.503082 301.653046,196.803757 301.536102,196.700760 
	C295.995209,191.819901 293.010040,196.283051 289.466827,199.714752 
	C288.292328,200.852310 285.240997,201.947739 284.540344,201.340454 
	C281.943604,199.089645 276.772461,199.615555 276.882935,194.229401 
	C280.041992,195.625763 283.064362,197.323853 285.437714,198.657303 
	C289.587250,195.962448 293.248138,193.179886 297.324707,191.297409 
	C298.091125,190.943481 300.516144,194.181152 302.303986,196.076111 
z"/>
<path fill="#E0E0E0" opacity="1.000000" stroke="none" 
	d="
M242.417480,188.939728 
	C245.528000,189.749069 244.772568,190.841812 242.909546,191.630402 
	C236.867172,194.188019 232.805359,192.634384 229.971924,186.830292 
	C227.066116,180.877930 227.066116,180.877930 219.482513,182.994171 
	C219.016907,178.509506 223.005692,178.938553 225.462891,178.354950 
	C226.631653,178.077316 228.868591,180.189545 229.850113,181.715439 
	C231.396866,184.119995 232.292709,186.943253 233.466934,189.595688 
	C236.216843,189.396210 239.102371,189.186905 242.417480,188.939728 
z"/>
<path fill="#E0E0E0" opacity="1.000000" stroke="none" 
	d="
M211.953827,202.189453 
	C210.900970,200.952866 209.763885,199.777557 208.810623,198.468430 
	C205.628372,194.098175 202.015060,193.367004 197.440979,196.983841 
	C199.477570,190.773010 203.222656,189.744629 207.594528,194.086716 
	C212.745422,199.202515 212.745438,199.202499 220.563629,195.070374 
	C221.274017,195.145859 221.655365,195.358032 222.085144,196.123199 
	C218.740295,198.513962 215.347061,200.351715 211.953827,202.189453 
z"/>
<path fill="#E0E0E0" opacity="1.000000" stroke="none" 
	d="
M318.884766,215.620056 
	C313.730072,211.880798 308.992279,214.116226 304.031403,216.655029 
	C302.953339,217.206757 299.940979,216.295609 299.507294,215.313171 
	C298.569794,213.189606 294.088379,212.610977 296.841553,208.954559 
	C299.379456,212.900803 302.326843,215.713684 306.885468,212.487030 
	C312.200928,208.724701 315.906403,209.873184 318.884766,215.620056 
z"/>
<path fill="#E0E0E0" opacity="1.000000" stroke="none" 
	d="
M202.017624,209.365356 
	C202.587845,209.034576 202.999374,209.017334 203.724823,209.343597 
	C203.319046,211.047974 202.599350,212.408844 201.879669,213.769699 
	C198.628418,218.365265 194.770142,218.036453 190.527634,215.245987 
	C187.718628,213.398407 185.000717,213.544449 182.149567,215.955414 
	C182.963989,211.118912 184.320343,209.330719 191.025375,212.454239 
	C193.024994,213.385757 195.122269,214.107620 197.375793,215.005630 
	C198.840195,213.265656 200.349579,211.472260 202.017624,209.365356 
z"/>
<path fill="#FF9800" opacity="1.000000" stroke="none" 
	d="
M164.372528,294.995789 
	C164.857666,294.825958 165.648056,294.849060 166.725235,295.361938 
	C170.238098,301.009216 173.464188,306.166718 176.690262,311.324188 
	C176.562225,311.449432 176.434174,311.574646 176.113907,311.887451 
	C172.173706,306.446320 168.425735,300.817535 164.372528,294.995789 
z"/>
<path fill="#E0E0E0" opacity="1.000000" stroke="none" 
	d="
M254.929276,177.557465 
	C251.553925,177.956711 248.227295,177.950974 244.507950,177.954620 
	C245.562119,174.089264 251.789612,173.624023 254.929276,177.557465 
z"/>
<path fill="#E0E0E0" opacity="1.000000" stroke="none" 
	d="
M255.923279,184.639389 
	C255.608856,184.466721 255.338242,183.981964 255.042374,183.204590 
	C255.333771,183.383743 255.650421,183.855515 255.923279,184.639389 
z"/>
<path fill="#E0E0E0" opacity="1.000000" stroke="none" 
	d="
M302.924683,197.657745 
	C302.613892,197.705505 302.393402,197.471924 302.239380,196.992004 
	C302.542206,196.955887 302.778595,197.166138 302.924683,197.657745 
z"/>
<path fill="#000000" opacity="1.000000" stroke="none" 
	d="
M176.937271,311.541534 
	C173.464188,306.166718 170.238098,301.009216 166.994095,295.493530 
	C171.287460,295.075348 175.598663,295.002106 179.910156,294.967133 
	C180.730072,294.960449 182.068832,294.818115 182.293411,295.223267 
	C185.203735,300.473755 188.762970,297.168762 191.900970,295.856567 
	C196.495178,293.935394 199.843903,294.772858 202.039307,300.027039 
	C200.351578,303.824280 198.734161,306.893738 197.116730,309.963226 
	C196.329269,314.227509 199.872910,315.827087 202.478333,317.268036 
	C203.497253,317.831543 206.807053,315.940277 207.912338,314.356659 
	C211.886017,308.663330 215.980728,309.000549 220.787689,313.931396 
	C220.461090,316.093628 220.504547,319.115173 219.493591,321.728912 
	C217.950119,325.719452 219.449783,327.793488 222.853577,329.322388 
	C225.312897,330.427063 227.425522,330.679993 228.865952,327.698425 
	C230.402649,324.517548 232.155838,321.441284 233.987793,317.993195 
	C236.631943,318.663361 239.596741,319.414795 242.557114,320.166931 
	C243.020294,323.406860 243.863892,326.645264 243.870758,329.885437 
	C243.882172,335.266754 247.674042,333.848328 250.546066,333.939514 
	C254.018341,334.049713 255.078186,331.814850 254.985947,328.731812 
	C254.971039,328.233337 255.078033,327.715302 254.978287,327.237732 
	C253.930984,322.223358 255.962616,319.540100 261.037445,318.999573 
	C262.139465,318.882202 263.203339,318.406464 264.509613,318.031189 
	C266.003998,321.040375 267.607971,324.048187 269.006348,327.148743 
	C270.388062,330.212402 272.384094,330.744354 275.289276,329.276489 
	C278.058441,327.877350 281.556702,327.135376 279.352051,322.641388 
	C278.654266,321.219025 278.545410,319.520233 278.009613,318.003571 
	C276.303345,313.173370 280.463623,312.049347 283.187866,310.667450 
	C284.265991,310.120575 286.699951,311.867432 288.317352,312.886200 
	C289.553009,313.664520 290.607239,314.839020 291.511688,316.014618 
	C294.118225,319.402405 296.470184,317.729095 299.101349,315.986420 
	C302.004852,314.063416 301.778778,311.942352 300.149780,309.413513 
	C299.365204,308.195557 298.968201,306.592834 297.934784,305.694702 
	C294.294464,302.530853 296.657715,299.868927 298.429047,297.179321 
	C300.336884,294.282471 303.294952,294.262909 305.913269,295.497681 
	C310.026245,297.437317 313.497925,299.608459 317.877136,295.338654 
	C319.346710,293.905823 323.306488,295.026978 326.576294,295.058472 
	C323.414276,300.859131 320.226227,306.909332 316.100586,312.232941 
	C308.836426,321.606384 299.566223,328.760925 289.139893,334.442108 
	C273.071625,343.197540 256.221252,346.448273 237.840363,344.251099 
	C220.142227,342.135559 204.713715,335.425049 190.805649,324.857056 
	C185.823929,321.071716 181.699814,316.157745 176.937271,311.541534 
z"/>
<path fill="#070707" opacity="1.000000" stroke="none" 
	d="
M273.335388,249.979584 
	C273.088989,250.597610 272.842560,251.215637 271.871338,251.930176 
	C269.417389,252.022675 267.688202,252.018646 265.784546,251.722076 
	C265.421265,250.309143 265.232452,249.188766 265.149170,247.601257 
	C265.254669,241.214890 265.254669,235.295639 265.254669,228.934723 
	C268.217316,229.067352 270.510986,229.170044 272.912018,229.604980 
	C276.597504,234.924042 278.892181,235.264099 281.016052,231.122299 
	C283.720917,230.407181 286.425812,229.692078 289.533813,229.305130 
	C289.936951,229.633301 290.108002,230.033127 290.073547,230.497589 
	C290.090790,236.317978 290.142456,241.673889 290.122375,247.394440 
	C290.096344,248.497360 290.142059,249.235626 290.187805,249.973907 
	C289.683990,250.653122 289.180176,251.332321 288.006836,252.060257 
	C286.890656,252.145599 286.444031,252.182205 285.997375,252.218811 
	C284.733795,251.708206 283.470215,251.197617 282.174286,249.946869 
	C282.067322,247.631332 281.992676,246.055954 281.876526,243.603790 
	C278.544403,248.503326 275.853851,246.753052 273.335388,243.471695 
	C273.335388,245.993820 273.335388,247.986694 273.335388,249.979584 
z"/>
<path fill="#090909" opacity="1.000000" stroke="none" 
	d="
M144.048370,285.024475 
	C142.545990,284.153412 140.595627,283.317963 140.559372,282.406372 
	C140.295776,275.776550 140.417618,269.131409 140.417618,262.600983 
	C146.214554,261.386871 146.214554,261.386871 152.680328,268.789612 
	C153.421082,266.500732 153.606033,263.675079 155.106812,262.116272 
	C156.085251,261.100037 158.975769,261.924683 161.669174,261.924683 
	C161.669174,269.015381 161.737137,275.780518 161.581665,282.540527 
	C161.562592,283.369629 160.291580,284.900513 159.696930,284.854797 
	C157.532272,284.688354 155.074768,284.490356 153.365463,283.349060 
	C151.734390,282.260040 150.898941,279.979401 149.376099,277.722046 
	C147.719299,280.530731 150.653702,286.206512 144.048370,285.024475 
z"/>
<path fill="#040404" opacity="1.000000" stroke="none" 
	d="
M281.002716,261.777191 
	C282.790314,261.946411 284.647430,261.862396 286.352844,262.330841 
	C292.219818,263.942291 294.155945,269.565338 290.938019,274.704803 
	C290.265381,275.779114 290.447876,277.388855 290.548462,279.273621 
	C291.524750,280.876740 292.188904,281.958160 292.862152,283.348846 
	C292.851898,284.069275 292.832520,284.480377 292.813141,284.891510 
	C292.813141,284.891510 292.897278,284.901825 292.664886,284.926514 
	C292.432495,284.951202 292.005981,285.147949 291.577972,285.095154 
	C289.427704,285.077026 287.705475,285.111725 285.983215,285.146423 
	C284.212036,282.961548 282.440857,280.776642 280.333710,278.177307 
	C280.126709,280.409119 279.941498,282.406494 279.688904,285.130005 
	C277.373474,285.130005 275.048218,285.130005 272.240479,284.808594 
	C271.669922,284.238007 271.581848,283.988800 271.565857,283.334961 
	C271.637909,276.079773 271.637909,269.229248 271.637909,262.208466 
	C273.444550,262.020569 274.712708,261.888672 276.393311,261.841766 
	C278.204742,261.876892 279.603729,261.827057 281.002716,261.777191 
z"/>
<path fill="#090909" opacity="1.000000" stroke="none" 
	d="
M192.960617,281.006989 
	C192.960617,274.807098 192.960617,268.607239 192.960617,261.970795 
	C199.615173,261.970795 205.337463,261.970795 211.503052,262.459015 
	C212.033340,263.997040 212.120331,265.046875 212.162354,266.480530 
	C209.742676,267.524628 207.367996,268.184906 204.691284,268.698364 
	C203.581879,268.681335 202.774460,268.811096 201.967056,268.940857 
	C201.985001,269.272766 202.002945,269.604645 202.020905,269.936554 
	C203.014816,269.936554 204.008743,269.936554 205.418549,270.020691 
	C207.870743,270.724304 210.933319,268.585846 211.677521,272.680145 
	C212.522202,277.327301 208.580673,276.395721 205.823807,277.952240 
	C211.877518,277.136169 213.612137,279.707703 212.008347,284.853027 
	C210.434265,285.037598 209.212845,285.118744 207.991409,285.199890 
	C204.385513,285.141571 200.772995,285.190491 197.177246,284.968140 
	C195.875565,284.887604 194.614044,284.157593 193.234070,283.031311 
	C193.076172,281.894806 193.018387,281.450897 192.960617,281.006989 
z"/>
<path fill="#070707" opacity="1.000000" stroke="none" 
	d="
M334.036316,275.819061 
	C333.803192,277.834076 333.457550,279.495972 332.771851,281.622925 
	C332.262390,282.392853 332.093018,282.697693 331.923676,283.002533 
	C331.923676,283.002533 331.993042,282.973480 331.981873,282.937592 
	C327.487854,283.578674 322.992889,284.835419 318.526062,284.742340 
	C315.175629,284.672577 312.527435,282.247833 312.090637,277.809662 
	C314.340302,277.526581 316.400055,277.267426 319.306183,276.901764 
	C314.692535,274.450287 311.131775,271.611481 313.449402,266.442993 
	C315.552185,261.753754 319.907257,261.160034 324.473999,261.641876 
	C328.687897,262.086487 332.148102,263.565796 333.245087,268.495331 
	C331.074036,268.953583 329.116272,269.366821 327.702423,269.665253 
	C329.852234,271.669678 331.888000,273.567810 334.036316,275.819061 
z"/>
<path fill="#090909" opacity="1.000000" stroke="none" 
	d="
M133.569855,274.706848 
	C130.433899,275.955933 127.338036,276.795959 124.350548,277.606567 
	C127.061829,280.517883 136.529129,274.018585 134.163269,284.765686 
	C127.940697,284.765686 121.870995,284.765686 115.464371,284.765686 
	C115.464371,277.204590 115.464371,269.826324 115.464371,262.158203 
	C121.614288,262.158203 127.529167,262.158203 133.795715,262.158203 
	C133.795715,264.110291 133.795715,266.000183 133.795715,268.317505 
	C130.524368,268.468048 127.306824,268.616119 123.829185,268.776123 
	C126.466393,272.578064 133.864624,266.105591 133.569855,274.706848 
z"/>
<path fill="#070707" opacity="1.000000" stroke="none" 
	d="
M211.902618,252.203552 
	C210.725708,251.739243 209.548813,251.274948 208.554535,250.224579 
	C208.929550,248.776169 209.121918,247.913834 209.548828,246.785461 
	C211.136475,242.650467 212.797928,238.856415 213.760757,234.892670 
	C214.843765,230.434204 216.915100,227.910477 222.197235,228.815002 
	C223.640305,229.000015 224.693314,229.108444 225.961105,229.494812 
	C230.246887,233.362350 228.131744,238.958694 230.605179,243.467163 
	C231.545135,246.181778 232.379395,248.530045 233.161621,251.203613 
	C233.082367,251.746811 233.055145,251.964722 232.588196,252.190826 
	C229.037155,251.870163 226.241989,252.079346 223.303879,249.416245 
	C220.554291,246.924057 216.836533,249.933746 213.720459,252.186127 
	C212.872147,252.185181 212.387375,252.194366 211.902618,252.203552 
z"/>
<path fill="#040404" opacity="1.000000" stroke="none" 
	d="
M178.930313,261.824921 
	C181.722336,261.824921 184.514343,261.824921 187.613571,261.824921 
	C187.613571,264.301208 187.613571,266.225159 187.613571,268.608795 
	C185.868057,268.826599 183.977966,269.062439 181.610687,269.357849 
	C181.610687,274.450775 181.610687,279.504669 181.610687,284.777496 
	C178.669052,284.777496 176.218979,284.777496 173.252228,284.777496 
	C173.252228,279.759705 173.252228,274.683990 173.252228,269.259949 
	C170.890411,269.080414 169.002213,268.936859 166.896088,268.776733 
	C166.896088,266.474396 166.896088,264.382080 166.896088,261.863342 
	C169.480820,261.863342 171.784637,261.863342 174.914642,261.887756 
	C176.803986,261.883087 177.867157,261.854004 178.930313,261.824921 
z"/>
<path fill="#000000" opacity="1.000000" stroke="none" 
	d="
M266.005157,209.994736 
	C264.994263,212.056213 263.983368,214.117676 262.512817,216.571426 
	C260.031036,217.261826 258.008881,217.559937 255.530121,217.839325 
	C251.722168,217.828430 248.370773,217.836258 244.688370,217.637939 
	C241.642502,217.233917 238.927658,217.036026 236.041168,216.540710 
	C234.952271,214.498672 234.035019,212.754059 233.427994,210.828430 
	C244.385559,205.075592 255.162888,205.929947 266.005157,209.994736 
z"/>
<path fill="#A8A8A8" opacity="1.000000" stroke="none" 
	d="
M201.925751,214.186249 
	C202.599350,212.408844 203.319046,211.047974 204.033722,209.339752 
	C206.641357,206.942215 209.253998,204.892029 211.910217,202.515656 
	C215.347061,200.351715 218.740295,198.513962 222.316864,196.355804 
	C227.795898,195.795120 229.024368,200.111053 230.867813,204.218262 
	C230.559860,205.565857 230.367691,206.303589 229.816223,206.970215 
	C227.109268,205.144760 226.189148,199.843399 221.952133,202.728775 
	C217.351761,205.861603 213.261688,209.815414 209.271133,213.738785 
	C207.541885,215.438904 208.144867,217.126724 210.962433,217.345779 
	C207.953049,221.818802 205.000290,225.949356 202.047546,230.079895 
	C202.067581,227.427002 202.112686,224.773987 202.100464,222.121246 
	C202.088898,219.614960 202.017136,217.108948 201.925751,214.186249 
z"/>
<path fill="#D0A25F" opacity="1.000000" stroke="none" 
	d="
M179.155396,261.596680 
	C177.867157,261.854004 176.803986,261.883087 175.349472,261.821960 
	C169.708374,252.683899 164.458633,243.636017 158.866608,233.998199 
	C152.802597,236.753021 146.895126,239.436722 140.987656,242.120422 
	C140.755142,241.675278 140.522614,241.230133 140.290085,240.784988 
	C146.383575,237.294449 152.436432,233.727631 158.631409,230.427628 
	C159.273376,230.085648 161.181396,231.030319 161.790314,231.885010 
	C167.867569,240.415222 173.847610,249.016907 179.677460,257.717468 
	C180.209579,258.511566 179.508759,260.131836 179.155396,261.596680 
z"/>
<path fill="#070707" opacity="1.000000" stroke="none" 
	d="
M238.818619,307.189880 
	C237.136551,305.435547 235.454483,303.681244 233.443848,301.374023 
	C232.472656,298.624603 231.830017,296.428009 231.491837,294.163788 
	C232.206726,294.050629 232.617142,294.005096 233.133392,294.299652 
	C233.893875,295.164185 234.594421,296.176392 235.194382,296.119934 
	C236.873932,295.961884 238.504776,295.030975 240.167603,294.995056 
	C246.746445,294.852997 253.338638,295.137787 259.908905,294.861145 
	C263.832764,294.695953 265.629944,296.294128 265.565460,300.016541 
	C255.527512,302.794952 245.845001,302.944275 234.718613,299.787170 
	C237.024948,302.705505 238.400116,304.445557 239.536133,306.436707 
	C239.137527,306.855164 238.978073,307.022522 238.818619,307.189880 
z"/>
<path fill="#4B453C" opacity="1.000000" stroke="none" 
	d="
M230.175522,207.041306 
	C230.367691,206.303589 230.559860,205.565857 230.921051,204.588882 
	C246.848175,199.241364 260.083649,200.836365 269.114777,205.601730 
	C268.277100,206.987656 267.451324,208.353897 266.315369,209.857437 
	C255.162888,205.929947 244.385559,205.075592 233.198944,210.647156 
	C232.106262,210.097931 231.552872,209.548965 230.937866,208.698532 
	C230.603622,208.095749 230.330978,207.794449 230.141602,207.394196 
	C230.224869,207.295227 230.175522,207.041306 230.175522,207.041306 
z"/>
<path fill="#090909" opacity="1.000000" stroke="none" 
	d="
M297.877228,266.978149 
	C298.044098,265.516693 298.210968,264.055206 298.415466,262.264038 
	C301.115936,262.264038 303.686646,262.264038 306.619568,262.264038 
	C306.619568,269.591583 306.619568,276.958344 306.619568,284.850189 
	C303.647034,283.937592 299.360718,288.029510 298.193909,280.983643 
	C298.124542,278.779449 298.075104,277.381409 298.145020,275.545715 
	C298.135345,272.398071 298.006287,269.688110 297.877228,266.978149 
z"/>
<path fill="#A8A8A8" opacity="1.000000" stroke="none" 
	d="
M231.187378,294.231445 
	C231.830017,296.428009 232.472656,298.624603 233.167511,301.158386 
	C232.594681,302.966858 231.969635,304.438110 231.344589,305.909393 
	C230.831375,305.685242 230.318161,305.461090 229.804947,305.236938 
	C230.078018,303.941345 230.351089,302.645752 230.680664,301.082123 
	C226.580215,299.592194 222.704147,297.960388 218.695068,296.780731 
	C213.027161,295.112915 210.507187,290.573212 208.003479,285.552032 
	C209.212845,285.118744 210.434265,285.037598 212.341125,285.028259 
	C214.810623,287.029694 216.846527,288.785187 218.326172,290.925293 
	C221.370834,295.329010 224.379120,294.007904 227.613541,291.569305 
	C226.671371,289.265167 225.832855,287.214539 225.287918,285.080811 
	C225.983536,284.937347 226.385544,284.876953 227.110168,285.016479 
	C232.104416,286.796967 230.584793,290.956146 231.187378,294.231445 
z"/>
<path fill="#8A8884" opacity="1.000000" stroke="none" 
	d="
M201.990082,230.444412 
	C205.000290,225.949356 207.953049,221.818802 211.240997,217.355652 
	C211.761948,217.031540 211.947708,217.040054 212.396042,217.299835 
	C214.144257,217.782364 215.629898,218.013596 217.051804,218.576874 
	C216.290466,219.827423 215.625732,220.773193 214.890106,221.660141 
	C208.749893,229.063278 203.898392,237.072815 202.509247,246.966766 
	C200.718262,247.067017 199.337997,247.120743 197.957748,247.174469 
	C199.282700,241.719284 200.607651,236.264099 201.990082,230.444412 
z"/>
<path fill="#8A8884" opacity="1.000000" stroke="none" 
	d="
M290.108002,230.033127 
	C290.108002,230.033127 289.936951,229.633301 289.946014,229.416046 
	C287.638763,225.782547 285.322449,222.366287 283.308899,218.522858 
	C284.783508,217.709579 285.955353,217.323456 287.127167,216.937332 
	C295.291565,225.347870 300.664734,235.135117 301.539948,247.381454 
	C299.791534,247.522781 298.432678,247.231354 297.062744,246.531799 
	C296.049286,240.193878 295.195374,234.200058 290.108002,230.033127 
z"/>
<path fill="#666666" opacity="1.000000" stroke="none" 
	d="
M280.897827,230.801727 
	C278.892181,235.264099 276.597504,234.924042 273.216187,229.478577 
	C273.363220,228.002289 273.676239,226.330139 273.206787,226.069992 
	C269.236603,223.869812 265.123566,221.927353 260.805481,219.847046 
	C260.393402,219.742035 260.229279,219.697479 260.080200,219.480255 
	C260.095245,219.307571 260.088593,218.960968 260.415344,218.946167 
	C261.502502,218.610733 262.262848,218.290131 263.023224,217.969513 
	C270.250427,220.283203 276.026794,224.655853 280.897827,230.801727 
z"/>
<path fill="#757574" opacity="1.000000" stroke="none" 
	d="
M211.901215,252.648468 
	C212.387375,252.194366 212.872147,252.185181 213.718140,252.598221 
	C215.546463,258.330109 217.013550,263.639771 218.586517,269.318085 
	C218.423828,271.124756 218.155273,272.562805 217.577942,273.859863 
	C215.581879,271.178131 213.894608,268.637421 212.207321,266.096680 
	C212.120331,265.046875 212.033340,263.997040 211.962219,262.550446 
	C211.951996,259.133575 211.925903,256.113495 211.901215,252.648468 
z"/>
<path fill="#9E9E9E" opacity="1.000000" stroke="none" 
	d="
M285.938873,285.478943 
	C287.705475,285.111725 289.427704,285.077026 291.439301,285.367004 
	C291.476318,286.451782 291.223969,287.211945 290.971619,287.972076 
	C290.971619,287.972076 290.985138,287.987579 290.748901,288.097260 
	C290.275604,288.459930 290.038483,288.712921 289.801392,288.965912 
	C288.953583,289.747833 288.105774,290.529755 286.858521,291.731567 
	C285.941620,292.749237 285.424164,293.347015 284.906708,293.944763 
	C283.847961,294.664093 282.789246,295.383423 281.561218,296.217743 
	C280.943268,295.214783 280.295013,294.162628 279.722626,293.233643 
	C281.891754,290.625092 283.893158,288.218292 285.938873,285.478943 
z"/>
<path fill="#070707" opacity="1.000000" stroke="none" 
	d="
M265.214905,306.202393 
	C257.788055,313.455994 248.294846,314.042816 238.970169,307.502625 
	C238.978073,307.022522 239.137527,306.855164 239.758148,306.531067 
	C240.446213,306.623047 240.726532,306.769348 241.336548,307.063751 
	C249.025284,311.209717 256.163208,311.157532 263.163879,305.786682 
	C263.630951,305.536133 263.892883,305.368317 264.438171,305.479309 
	C264.869781,305.880981 265.042358,306.041687 265.214905,306.202393 
z"/>
<path fill="#969696" opacity="1.000000" stroke="none" 
	d="
M297.536194,267.056030 
	C298.006287,269.688110 298.135345,272.398071 297.882019,275.769043 
	C296.983429,277.940063 296.467194,279.450104 295.950989,280.960144 
	C295.950989,280.960144 295.959839,280.995300 295.740295,281.081085 
	C295.335114,281.439117 295.149475,281.711365 294.963837,281.983612 
	C294.963837,281.983612 295.003693,281.980652 294.715210,282.097473 
	C293.902161,282.489380 293.377594,282.764465 292.853027,283.039551 
	C292.188904,281.958160 291.524750,280.876740 290.803040,279.473846 
	C292.895325,275.146210 295.045227,271.140076 297.536194,267.056030 
z"/>
<path fill="#ADADAC" opacity="1.000000" stroke="none" 
	d="
M280.990234,261.423187 
	C279.603729,261.827057 278.204742,261.876892 276.380737,261.489380 
	C274.269592,256.388855 270.459503,254.725235 265.980591,253.664673 
	C265.967926,252.894775 265.963470,252.454712 265.959045,252.014633 
	C267.688202,252.018646 269.417389,252.022675 271.574219,252.088455 
	C273.345856,253.446243 274.706787,254.725204 276.029449,256.042603 
	C277.695221,257.701691 279.329742,259.392212 280.990234,261.423187 
z"/>
<path fill="#666666" opacity="1.000000" stroke="none" 
	d="
M271.493774,283.739624 
	C271.581848,283.988800 271.669922,284.238007 271.872833,284.866699 
	C271.897919,287.960297 271.808197,290.674408 271.172241,293.675934 
	C270.389984,293.936127 270.153900,293.908966 269.877319,293.539062 
	C269.608246,292.117676 269.379730,291.039032 269.144043,289.569702 
	C267.090820,285.114380 265.044800,281.049744 263.062012,276.733643 
	C263.422668,276.321320 263.720032,276.160431 264.324280,276.132446 
	C266.918701,278.756805 269.206238,281.248199 271.493774,283.739624 
z"/>
<path fill="#BABABA" opacity="1.000000" stroke="none" 
	d="
M273.762054,249.976776 
	C273.335388,247.986694 273.335388,245.993820 273.335388,243.471695 
	C275.853851,246.753052 278.544403,248.503326 281.876526,243.603790 
	C281.992676,246.055954 282.067322,247.631332 282.047913,249.601074 
	C279.365509,249.988297 276.777100,249.981125 273.762054,249.976776 
z"/>
<path fill="#C4C4C4" opacity="1.000000" stroke="none" 
	d="
M317.112335,239.000748 
	C315.012573,238.902283 313.353180,238.801819 311.693817,238.701370 
	C311.723907,238.274292 311.753998,237.847214 311.784088,237.420135 
	C315.987549,237.330933 320.163239,234.373001 324.485687,238.601776 
	C322.174713,238.734100 319.863708,238.866425 317.112335,239.000748 
z"/>
<path fill="#C4C4C4" opacity="1.000000" stroke="none" 
	d="
M180.229889,235.986984 
	C183.219513,235.988693 185.763962,235.988693 188.308395,235.988693 
	C188.324753,236.547501 188.341095,237.106308 188.357437,237.665131 
	C184.096176,241.162628 179.041458,235.661407 174.753983,238.861649 
	C174.637985,238.207336 174.521973,237.553009 174.405960,236.898682 
	C176.198868,236.594223 177.991776,236.289749 180.229889,235.986984 
z"/>
<path fill="#C4C4C4" opacity="1.000000" stroke="none" 
	d="
M197.823303,247.482971 
	C199.337997,247.120743 200.718262,247.067017 202.966858,246.990295 
	C205.661560,246.995377 207.487930,247.023438 209.314301,247.051514 
	C209.121918,247.913834 208.929550,248.776169 208.504730,249.876450 
	C205.452042,250.067139 202.615662,250.171677 199.821991,249.874451 
	C199.045853,249.791885 198.396408,248.518524 197.823303,247.482971 
z"/>
<path fill="#C4C4C4" opacity="1.000000" stroke="none" 
	d="
M297.073853,246.939941 
	C298.432678,247.231354 299.791534,247.522781 301.501221,247.782684 
	C301.361267,248.493256 300.911133,249.841232 300.372894,249.877365 
	C297.289276,250.084396 294.184723,249.979828 290.637512,249.977463 
	C290.142059,249.235626 290.096344,248.497360 290.549316,247.390152 
	C293.056610,246.994110 295.065247,246.967026 297.073853,246.939941 
z"/>
<path fill="#555555" opacity="1.000000" stroke="none" 
	d="
M286.921021,216.653275 
	C285.955353,217.323456 284.783508,217.709579 283.235168,218.196533 
	C281.568573,217.673035 280.278503,217.048676 278.550323,216.212311 
	C279.604340,214.676025 280.391296,213.529007 281.474731,211.949844 
	C283.476135,213.637772 285.095520,215.003494 286.921021,216.653275 
z"/>
<path fill="#E0E0E0" opacity="1.000000" stroke="none" 
	d="
M197.459351,309.955566 
	C198.734161,306.893738 200.351578,303.824280 202.069534,300.402649 
	C202.845459,300.727020 204.183899,301.893433 204.099106,302.008209 
	C202.092865,304.723358 199.933411,307.325256 197.459351,309.955566 
z"/>
<path fill="#070707" opacity="1.000000" stroke="none" 
	d="
M269.917847,293.881805 
	C270.153900,293.908966 270.389984,293.936127 270.982086,293.981171 
	C270.575287,298.441895 270.148468,303.042236 265.510010,306.004883 
	C265.042358,306.041687 264.869781,305.880981 264.620117,305.201172 
	C265.433655,303.149597 266.324249,301.617035 267.481476,299.867371 
	C268.471375,297.727417 269.194611,295.804596 269.917847,293.881805 
z"/>
<path fill="#555555" opacity="1.000000" stroke="none" 
	d="
M262.986450,217.697083 
	C262.262848,218.290131 261.502502,218.610733 260.037354,218.950394 
	C258.217255,218.598969 257.101990,218.228500 255.986694,217.858047 
	C258.008881,217.559937 260.031036,217.261826 262.451965,216.923782 
	C262.883698,217.064117 262.916718,217.244385 262.986450,217.697083 
z"/>
<path fill="#C4C4C4" opacity="1.000000" stroke="none" 
	d="
M182.984955,286.732239 
	C184.517181,285.744263 185.820679,284.980621 187.124176,284.217010 
	C187.380814,284.618683 187.637451,285.020386 187.894089,285.422058 
	C186.264404,286.468384 184.634720,287.514709 183.005035,288.561035 
	C182.922104,288.026215 182.839172,287.491425 182.984955,286.732239 
z"/>
<path fill="#ADADAC" opacity="1.000000" stroke="none" 
	d="
M285.997437,252.593796 
	C286.444031,252.182205 286.890656,252.145599 287.670044,252.163879 
	C287.831818,253.865891 287.660828,255.512985 287.489868,257.160095 
	C287.084351,257.129547 286.678864,257.098999 286.273376,257.068451 
	C286.181427,255.701889 286.089447,254.335342 285.997437,252.593796 
z"/>
<path fill="#C4C4C4" opacity="1.000000" stroke="none" 
	d="
M192.610977,281.018127 
	C193.018387,281.450897 193.076172,281.894806 193.047607,282.666077 
	C191.888901,283.197815 190.816559,283.402191 189.744217,283.606567 
	C189.559875,283.293518 189.375534,282.980469 189.191193,282.667419 
	C190.214569,282.121368 191.237961,281.575348 192.610977,281.018127 
z"/>
<path fill="#BABABA" opacity="1.000000" stroke="none" 
	d="
M296.289246,280.972107 
	C296.467194,279.450104 296.983429,277.940063 297.762634,276.206726 
	C298.075104,277.381409 298.124542,278.779449 298.077423,280.587708 
	C297.529755,280.993347 297.078674,280.988708 296.289246,280.972107 
z"/>
<path fill="#BABABA" opacity="1.000000" stroke="none" 
	d="
M292.862152,283.348846 
	C293.377594,282.764465 293.902161,282.489380 294.696655,282.088013 
	C294.485565,282.920837 294.004517,283.879944 293.168304,284.865295 
	C292.832520,284.480377 292.851898,284.069275 292.862152,283.348846 
z"/>
<path fill="#BABABA" opacity="1.000000" stroke="none" 
	d="
M291.322144,287.908203 
	C291.223969,287.211945 291.476318,286.451782 291.867310,285.419800 
	C292.005981,285.147949 292.432495,284.951202 292.657715,284.884735 
	C292.479523,285.826965 292.076111,286.835632 291.322144,287.908203 
z"/>
<path fill="#BABABA" opacity="1.000000" stroke="none" 
	d="
M285.131775,294.158264 
	C285.424164,293.347015 285.941620,292.749237 286.707153,291.978973 
	C286.422424,292.661560 285.889618,293.516663 285.131775,294.158264 
z"/>
<path fill="#D0A25F" opacity="1.000000" stroke="none" 
	d="
M138.585907,242.454407 
	C138.645599,242.531998 138.417358,242.553879 138.417358,242.553879 
	C138.417358,242.553879 138.526199,242.376801 138.585907,242.454407 
z"/>
<path fill="#D0A25F" opacity="1.000000" stroke="none" 
	d="
M136.458237,243.440720 
	C136.535721,243.396332 136.565536,243.583618 136.565536,243.583618 
	C136.565536,243.583618 136.380753,243.485107 136.458237,243.440720 
z"/>
<path fill="#BABABA" opacity="1.000000" stroke="none" 
	d="
M290.053833,288.876343 
	C290.038483,288.712921 290.275604,288.459930 290.747253,288.094971 
	C290.756622,288.250946 290.531464,288.518860 290.053833,288.876343 
z"/>
<path fill="#BABABA" opacity="1.000000" stroke="none" 
	d="
M295.183929,281.870300 
	C295.149475,281.711365 295.335114,281.439117 295.750610,281.066650 
	C295.868744,281.288605 295.676575,281.552124 295.183929,281.870300 
z"/>
<path fill="#070707" opacity="1.000000" stroke="none" 
	d="
M379.427429,262.311340 
	C381.603333,264.023010 383.427521,265.585327 386.174011,267.937500 
	C383.234589,269.107544 381.402496,269.836823 379.456177,270.611572 
	C383.260071,271.823944 386.452301,273.969849 385.540924,278.607635 
	C384.629028,283.247955 380.916290,284.712433 376.657684,285.229584 
	C369.357300,286.116089 365.205750,283.914703 363.766113,277.737854 
	C366.135345,277.503113 368.428589,277.275879 371.660553,276.955658 
	C369.983765,276.127716 368.862549,275.933380 368.388428,275.273865 
	C366.848175,273.131348 364.308960,270.712616 364.490051,268.600464 
	C364.679657,266.389160 367.191132,263.393005 369.373444,262.579590 
	C372.258575,261.504181 375.810425,262.217499 379.427429,262.311340 
z"/>
<path fill="#090909" opacity="1.000000" stroke="none" 
	d="
M339.240417,275.253418 
	C339.491211,270.604004 339.842743,266.418335 340.543060,261.985413 
	C346.522491,261.738159 352.153137,261.738159 359.663177,261.738159 
	C358.178925,264.683014 357.655640,267.609772 356.154419,268.252533 
	C353.958862,269.192535 351.061951,268.494324 348.463959,268.494324 
	C348.438629,268.934998 348.413300,269.375641 348.387970,269.816315 
	C350.454803,269.925995 352.628357,269.684296 354.551056,270.268372 
	C355.840515,270.660095 357.367981,272.046021 357.740814,273.298981 
	C358.466736,275.738556 357.031372,276.929535 354.446472,276.787292 
	C352.378723,276.673523 350.299744,276.764313 347.648682,276.764313 
	C351.102905,280.686584 360.509003,273.754059 358.582306,284.642639 
	C352.413300,284.642639 346.221802,284.642639 339.341125,284.642639 
	C339.341125,281.611023 339.341125,278.664093 339.240417,275.253418 
z"/>
<path fill="#AEAEAD" opacity="1.000000" stroke="none" 
	d="
M332.161591,282.889221 
	C332.093018,282.697693 332.262390,282.392853 332.678833,281.982727 
	C332.750427,282.176941 332.574951,282.476410 332.161591,282.889221 
z"/>
<path fill="#CEAB8A" opacity="1.000000" stroke="none" 
	d="
M265.784546,251.722076 
	C265.963470,252.454712 265.967926,252.894775 265.925995,254.038635 
	C264.879364,257.569244 263.879150,260.396057 262.474152,263.136169 
	C256.626251,262.554321 251.183151,262.059143 245.630951,261.554077 
	C245.369431,264.488953 245.210236,266.275360 244.691238,268.003510 
	C242.507553,267.320068 240.683670,266.694916 238.898102,266.056702 
	C238.936417,266.043671 238.925644,266.123871 238.918427,265.791809 
	C238.445190,265.084412 237.979202,264.709045 237.596008,264.312317 
	C237.678818,264.290955 237.646576,264.458923 237.614563,264.157349 
	C237.230392,263.746826 236.878220,263.637817 236.501205,263.558685 
	C236.476349,263.588531 236.398727,263.591827 236.526398,263.199280 
	C236.111847,259.607422 235.569611,256.408081 235.430099,253.200592 
	C239.736206,253.792450 243.799683,253.908844 247.496552,255.132675 
	C250.977951,256.285156 252.383163,255.294586 253.392761,251.956650 
	C255.595840,249.852234 257.525177,247.937302 259.718445,245.843292 
	C261.669495,246.465607 263.356567,247.266983 265.043671,248.068375 
	C265.232452,249.188766 265.421265,250.309143 265.784546,251.722076 
z"/>
<path fill="#A8A8A8" opacity="1.000000" stroke="none" 
	d="
M265.149170,247.601257 
	C263.356567,247.266983 261.669495,246.465607 259.676239,245.373230 
	C259.232117,240.768234 258.922913,236.450211 259.023865,232.141815 
	C259.079590,229.763840 258.287384,228.770157 256.219055,228.601669 
	C256.966888,227.546341 257.497284,226.712708 258.053253,225.611694 
	C258.355316,224.905701 258.631775,224.467087 259.274658,223.950226 
	C260.111816,222.550507 260.582642,221.229004 261.053436,219.907501 
	C265.123566,221.927353 269.236603,223.869812 273.206787,226.069992 
	C273.676239,226.330139 273.363220,228.002289 273.108765,229.146317 
	C270.510986,229.170044 268.217316,229.067352 265.254669,228.934723 
	C265.254669,235.295639 265.254669,241.214890 265.149170,247.601257 
z"/>
<path fill="#ADADAC" opacity="1.000000" stroke="none" 
	d="
M297.062744,246.531799 
	C295.065247,246.967026 293.056610,246.994110 290.621063,247.025513 
	C290.142456,241.673889 290.090790,236.317978 290.073547,230.497589 
	C295.195374,234.200058 296.049286,240.193878 297.062744,246.531799 
z"/>
<path fill="#BABABA" opacity="1.000000" stroke="none" 
	d="
M262.878906,263.222839 
	C263.879150,260.396057 264.879364,257.569244 265.934204,254.368469 
	C270.459503,254.725235 274.269592,256.388855 275.968323,261.404419 
	C274.712708,261.888672 273.444550,262.020569 271.637909,262.208466 
	C271.637909,269.229248 271.637909,276.079773 271.565857,283.334961 
	C269.206238,281.248199 266.918701,278.756805 264.438690,275.774109 
	C267.431885,270.849976 266.695099,266.861847 262.878906,263.222839 
z"/>
<path fill="#AEAEAD" opacity="1.000000" stroke="none" 
	d="
M212.162354,266.480530 
	C213.894608,268.637421 215.581879,271.178131 217.709625,274.274750 
	C218.349091,278.096802 218.548111,281.362976 218.757782,284.803833 
	C221.067459,284.937195 223.030899,285.050537 224.994324,285.163910 
	C225.832855,287.214539 226.671371,289.265167 227.613541,291.569305 
	C224.379120,294.007904 221.370834,295.329010 218.326172,290.925293 
	C216.846527,288.785187 214.810623,287.029694 212.693771,284.924835 
	C213.612137,279.707703 211.877518,277.136169 205.823807,277.952240 
	C208.580673,276.395721 212.522202,277.327301 211.677521,272.680145 
	C210.933319,268.585846 207.870743,270.724304 205.418823,269.747833 
	C204.999908,269.208954 204.996613,269.027069 204.993301,268.845184 
	C207.367996,268.184906 209.742676,267.524628 212.162354,266.480530 
z"/>
<path fill="#A8A8A8" opacity="1.000000" stroke="none" 
	d="
M204.691284,268.698364 
	C204.996613,269.027069 204.999908,269.208954 205.002930,269.663696 
	C204.008743,269.936554 203.014816,269.936554 202.020905,269.936554 
	C202.002945,269.604645 201.985001,269.272766 201.967056,268.940857 
	C202.774460,268.811096 203.581879,268.681335 204.691284,268.698364 
z"/>
<path fill="#A8A8A8" opacity="1.000000" stroke="none" 
	d="
M235.027374,253.208740 
	C235.569611,256.408081 236.111847,259.607422 236.168259,263.027283 
	C230.112350,262.651886 224.542267,262.055939 218.480621,261.407440 
	C218.480621,264.720032 218.480621,266.834717 218.480621,268.949432 
	C217.013550,263.639771 215.546463,258.330109 214.081696,252.608337 
	C216.836533,249.933746 220.554291,246.924057 223.303879,249.416245 
	C226.241989,252.079346 229.037155,251.870163 232.764297,252.421783 
	C233.929199,252.832596 234.478287,253.020676 235.027374,253.208740 
z"/>
<path fill="#A8A8A8" opacity="1.000000" stroke="none" 
	d="
M209.548828,246.785461 
	C207.487930,247.023438 205.661560,246.995377 203.377594,246.943756 
	C203.898392,237.072815 208.749893,229.063278 214.890106,221.660141 
	C215.625732,220.773193 216.290466,219.827423 217.354309,218.474548 
	C218.494766,217.700897 219.268982,217.361603 220.267242,217.043900 
	C220.491287,217.065475 220.939957,217.102264 221.007965,217.438995 
	C222.388580,220.190460 223.701172,222.605209 224.842712,225.281250 
	C223.716827,226.607864 222.762009,227.673141 221.807175,228.738434 
	C216.915100,227.910477 214.843765,230.434204 213.760757,234.892670 
	C212.797928,238.856415 211.136475,242.650467 209.548828,246.785461 
z"/>
<path fill="#969696" opacity="1.000000" stroke="none" 
	d="
M230.499481,243.100815 
	C228.131744,238.958694 230.246887,233.362350 226.046143,229.166565 
	C226.768051,227.677444 227.619720,226.794525 228.914734,225.927002 
	C232.225113,226.955429 235.092133,227.968460 237.852264,229.412949 
	C237.599350,232.177505 237.453308,234.510590 237.010681,236.896027 
	C236.200562,237.485596 235.687027,238.022827 235.173508,238.560043 
	C235.896149,239.090454 236.618805,239.620865 237.430817,240.541275 
	C237.593979,242.265884 237.667786,243.600510 237.546448,244.933487 
	C237.351334,244.931854 236.961151,244.939453 236.708649,244.666138 
	C234.470581,243.962173 232.485031,243.531494 230.499481,243.100815 
z"/>
<path fill="#555555" opacity="1.000000" stroke="none" 
	d="
M228.471390,225.911591 
	C227.619720,226.794525 226.768051,227.677444 225.831329,228.888611 
	C224.693314,229.108444 223.640305,229.000015 222.197235,228.815002 
	C222.762009,227.673141 223.716827,226.607864 225.148315,225.135651 
	C227.077133,223.686111 228.546494,222.666428 229.977448,221.595444 
	C232.070358,220.028992 234.135696,218.425705 236.212799,216.838135 
	C238.927658,217.036026 241.642502,217.233917 244.422638,217.870850 
	C242.651901,218.897873 240.815887,219.485840 238.667542,220.051895 
	C237.792679,220.255707 237.230179,220.481415 236.336533,220.797943 
	C233.494049,222.563049 230.982727,224.237320 228.471390,225.911591 
z"/>
<path fill="#666666" opacity="1.000000" stroke="none" 
	d="
M235.430099,253.200607 
	C234.478287,253.020676 233.929199,252.832596 233.204010,252.413574 
	C233.055145,251.964722 233.082367,251.746811 233.539703,251.216766 
	C235.038620,250.215500 236.107437,249.526367 237.558105,248.876205 
	C242.999634,249.992157 248.059326,251.069138 253.119003,252.146133 
	C252.383163,255.294586 250.977951,256.285156 247.496552,255.132675 
	C243.799683,253.908844 239.736206,253.792450 235.430099,253.200607 
z"/>
<path fill="#A8A8A8" opacity="1.000000" stroke="none" 
	d="
M237.176254,248.837234 
	C236.107437,249.526367 235.038620,250.215500 233.591736,250.891479 
	C232.379395,248.530045 231.545135,246.181778 230.605179,243.467163 
	C232.485031,243.531494 234.470581,243.962173 236.827698,244.879364 
	C237.389786,245.633102 237.622925,245.855682 237.961243,246.334106 
	C237.741287,247.368820 237.458771,248.103027 237.176254,248.837234 
z"/>
<path fill="#9E9E9E" opacity="1.000000" stroke="none" 
	d="
M236.041168,216.540710 
	C234.135696,218.425705 232.070358,220.028992 229.977448,221.595444 
	C228.546494,222.666428 227.077133,223.686111 225.319366,224.874344 
	C223.701172,222.605209 222.388580,220.190460 221.428223,217.406311 
	C224.730286,217.036896 227.680099,217.036896 230.629929,217.036896 
	C230.717361,216.602844 230.804794,216.168793 230.892212,215.734741 
	C228.353119,213.118484 225.814011,210.502228 222.777115,207.373047 
	C221.153198,209.448318 220.009918,210.909363 218.523209,212.312439 
	C216.164337,213.852509 214.148895,215.450516 212.133453,217.048553 
	C211.947708,217.040054 211.761948,217.031540 211.297623,217.013168 
	C208.144867,217.126724 207.541885,215.438904 209.271133,213.738785 
	C213.261688,209.815414 217.351761,205.861603 221.952133,202.728775 
	C226.189148,199.843399 227.109268,205.144760 229.816223,206.970215 
	C230.175522,207.041306 230.224869,207.295227 230.222656,207.691605 
	C230.480118,208.391983 230.739792,208.695999 230.999481,209.000000 
	C231.552872,209.548965 232.106262,210.097931 232.888702,210.828186 
	C234.035019,212.754059 234.952271,214.498672 236.041168,216.540710 
z"/>
<path fill="#AEAEAD" opacity="1.000000" stroke="none" 
	d="
M238.979889,220.073792 
	C240.815887,219.485840 242.651901,218.897873 244.753647,218.076996 
	C248.370773,217.836258 251.722168,217.828430 255.530121,217.839325 
	C257.101990,218.228500 258.217255,218.598969 259.710571,218.965210 
	C260.088593,218.960968 260.095245,219.307571 260.039001,219.863373 
	C259.624603,221.622253 259.266449,222.825363 258.908264,224.028458 
	C258.631775,224.467087 258.355316,224.905701 257.708435,225.802353 
	C254.298645,226.193253 251.037094,225.383087 248.265472,226.211700 
	C242.261154,228.006760 240.291412,224.799011 238.979889,220.073792 
z"/>
<path fill="#ADADAC" opacity="1.000000" stroke="none" 
	d="
M269.877319,293.539062 
	C269.194611,295.804596 268.471375,297.727417 267.171143,299.838257 
	C266.386719,300.014465 266.179260,300.002625 265.971832,299.990753 
	C265.629944,296.294128 263.832764,294.695953 259.908905,294.861145 
	C253.338638,295.137787 246.746445,294.852997 240.167603,294.995056 
	C238.504776,295.030975 236.873932,295.961884 235.194382,296.119934 
	C234.594421,296.176392 233.893875,295.164185 233.188324,293.907227 
	C233.457367,290.536865 233.777359,287.899048 234.494171,285.172028 
	C236.482605,284.987457 238.074219,284.892059 239.920685,284.781372 
	C239.128647,282.632233 238.459061,280.815338 238.115570,278.871582 
	C240.664154,277.455200 242.886627,276.165741 245.186432,275.333923 
	C245.263748,278.698486 245.263748,281.605469 245.263748,284.709717 
	C248.425583,284.709717 251.114471,284.709717 253.816422,284.709717 
	C253.952408,283.267639 254.060028,282.126434 254.518524,281.005188 
	C256.374664,282.610291 258.301788,283.968903 259.299683,285.826630 
	C261.559784,290.034302 264.368927,292.134949 269.151215,289.960419 
	C269.379730,291.039032 269.608246,292.117676 269.877319,293.539062 
z"/>
<path fill="#A8A8A8" opacity="1.000000" stroke="none" 
	d="
M265.565460,300.016541 
	C266.179260,300.002625 266.386719,300.014465 266.904510,300.055420 
	C266.324249,301.617035 265.433655,303.149597 264.361084,304.960266 
	C263.892883,305.368317 263.630951,305.536133 262.885010,305.551147 
	C258.314209,305.580933 254.249329,305.764526 250.190170,306.034149 
	C247.143066,306.236572 244.103302,306.549530 241.060272,306.813293 
	C240.726532,306.769348 240.446213,306.623047 239.997299,306.279968 
	C238.400116,304.445557 237.024948,302.705505 234.718613,299.787170 
	C245.845001,302.944275 255.527512,302.794952 265.565460,300.016541 
z"/>
<path fill="#757574" opacity="1.000000" stroke="none" 
	d="
M234.097351,285.261200 
	C233.777359,287.899048 233.457367,290.536865 233.082474,293.567139 
	C232.617142,294.005096 232.206726,294.050629 231.491837,294.163788 
	C230.584793,290.956146 232.104416,286.796967 227.187531,284.660828 
	C227.439072,282.475372 227.935867,280.845490 228.270065,279.749054 
	C230.113464,281.492767 232.105408,283.376984 234.097351,285.261200 
z"/>
<path fill="#A8A8A8" opacity="1.000000" stroke="none" 
	d="
M230.937866,208.698532 
	C230.739792,208.695999 230.480118,208.391983 230.139374,207.790558 
	C230.330978,207.794449 230.603622,208.095749 230.937866,208.698532 
z"/>
<path fill="#070707" opacity="1.000000" stroke="none" 
	d="
M234.494171,285.172028 
	C232.105408,283.376984 230.113464,281.492767 228.270065,279.749054 
	C227.935867,280.845490 227.439072,282.475372 226.864929,284.460907 
	C226.385544,284.876953 225.983536,284.937347 225.287918,285.080811 
	C223.030899,285.050537 221.067459,284.937195 218.757782,284.803833 
	C218.548111,281.362976 218.349091,278.096802 218.018402,274.415710 
	C218.155273,272.562805 218.423828,271.124756 218.586502,269.318085 
	C218.480621,266.834717 218.480621,264.720032 218.480621,261.407440 
	C224.542267,262.055939 230.112350,262.651886 236.040588,263.419800 
	C236.398727,263.591827 236.476349,263.588531 236.625153,263.779907 
	C237.064850,264.133820 237.355713,264.296356 237.646576,264.458923 
	C237.646576,264.458923 237.678818,264.290955 237.692993,264.594604 
	C238.113327,265.306763 238.519485,265.715332 238.925644,266.123871 
	C238.925644,266.123871 238.936417,266.043671 238.919113,266.414124 
	C238.564484,269.512238 238.227158,272.239868 237.921906,274.984985 
	C237.953979,275.002441 237.967331,274.930847 237.701355,275.024292 
	C237.010742,275.702240 236.586121,276.286743 236.179474,277.155975 
	C236.728149,277.959930 237.258820,278.479218 237.789474,278.998474 
	C238.459061,280.815338 239.128647,282.632233 239.920685,284.781372 
	C238.074219,284.892059 236.482605,284.987457 234.494171,285.172028 
z"/>
<path fill="#555555" opacity="1.000000" stroke="none" 
	d="
M212.396027,217.299835 
	C214.148895,215.450516 216.164337,213.852509 218.597534,212.640411 
	C219.357925,214.358353 219.700562,215.690338 220.043198,217.022339 
	C219.268982,217.361603 218.494766,217.700897 217.418045,218.142502 
	C215.629898,218.013596 214.144257,217.782364 212.396027,217.299835 
z"/>
<path fill="#C4C4C4" opacity="1.000000" stroke="none" 
	d="
M259.274658,223.950226 
	C259.266449,222.825363 259.624603,221.622253 260.023987,220.036041 
	C260.229279,219.697479 260.393402,219.742035 260.805481,219.847046 
	C260.582642,221.229004 260.111816,222.550507 259.274658,223.950226 
z"/>
<path fill="#C4C4C4" opacity="1.000000" stroke="none" 
	d="
M241.336548,307.063782 
	C244.103302,306.549530 247.143066,306.236572 250.190170,306.034149 
	C254.249329,305.764526 258.314209,305.580933 262.655518,305.595947 
	C256.163208,311.157532 249.025284,311.209717 241.336548,307.063782 
z"/>
<path fill="#070707" opacity="1.000000" stroke="none" 
	d="
M254.167648,280.985260 
	C254.060028,282.126434 253.952408,283.267639 253.816422,284.709717 
	C251.114471,284.709717 248.425583,284.709717 245.263748,284.709717 
	C245.263748,281.605469 245.263748,278.698486 245.242477,275.007690 
	C245.124237,273.795105 245.027283,273.366272 245.033646,272.537842 
	C245.108322,270.779388 245.079681,269.420593 245.051041,268.061768 
	C245.210236,266.275360 245.369431,264.488953 245.630951,261.554077 
	C251.183151,262.059143 256.626251,262.554321 262.474121,263.136169 
	C266.695099,266.861847 267.431885,270.849976 264.131805,275.641174 
	C263.720032,276.160431 263.422668,276.321320 262.652893,276.721039 
	C260.241821,277.269379 258.186676,277.288940 256.410248,278.002441 
	C255.422699,278.399139 254.899902,279.952972 254.167648,280.985260 
z"/>
<path fill="#BABABA" opacity="1.000000" stroke="none" 
	d="
M254.518524,281.005188 
	C254.899902,279.952972 255.422699,278.399139 256.410248,278.002441 
	C258.186676,277.288940 260.241821,277.269379 262.589630,276.972473 
	C265.044800,281.049744 267.090820,285.114380 269.144043,289.569702 
	C264.368927,292.134949 261.559784,290.034302 259.299683,285.826630 
	C258.301788,283.968903 256.374664,282.610291 254.518524,281.005188 
z"/>
<path fill="#040404" opacity="1.000000" stroke="none" 
	d="
M237.558105,248.876205 
	C237.458771,248.103027 237.741287,247.368820 237.989395,246.049850 
	C237.883835,245.288437 237.812698,245.111771 237.741577,244.935120 
	C237.667786,243.600510 237.593979,242.265884 237.577881,240.139359 
	C237.526138,238.512863 237.416718,237.678268 237.307281,236.843689 
	C237.453308,234.510590 237.599350,232.177505 238.242188,229.391281 
	C239.513870,228.868912 240.288712,228.799667 241.446243,228.812714 
	C243.129349,228.976562 244.429764,229.058136 245.781982,229.583710 
	C245.923172,233.026443 246.012589,236.025192 246.017426,239.430054 
	C245.920303,240.324738 245.729233,240.906250 245.926682,241.285400 
	C246.698425,242.767349 247.593018,244.185333 248.441956,245.627075 
	C249.221298,244.219894 250.128998,242.864075 250.722046,241.382324 
	C250.990631,240.711227 250.634445,239.790100 250.658340,238.536774 
	C250.853668,235.068817 250.952332,232.046448 251.462952,228.989822 
	C253.250473,228.911484 254.626053,228.867416 256.001617,228.823349 
	C258.287384,228.770157 259.079590,229.763840 259.023865,232.141815 
	C258.922913,236.450211 259.232117,240.768234 259.412292,245.552307 
	C257.525177,247.937302 255.595840,249.852234 253.392761,251.956650 
	C248.059326,251.069138 242.999634,249.992157 237.558105,248.876205 
z"/>
<path fill="#A8A8A8" opacity="1.000000" stroke="none" 
	d="
M244.691223,268.003510 
	C245.079681,269.420593 245.108322,270.779388 244.662277,272.561829 
	C242.088348,273.646149 239.989090,274.306854 237.889832,274.967529 
	C238.227158,272.239868 238.564484,269.512238 238.880798,266.427155 
	C240.683670,266.694916 242.507553,267.320068 244.691223,268.003510 
z"/>
<path fill="#A8A8A8" opacity="1.000000" stroke="none" 
	d="
M238.918427,265.791809 
	C238.519485,265.715332 238.113327,265.306763 237.610199,264.615967 
	C237.979202,264.709045 238.445190,265.084412 238.918427,265.791809 
z"/>
<path fill="#A8A8A8" opacity="1.000000" stroke="none" 
	d="
M237.614563,264.157349 
	C237.355713,264.296356 237.064850,264.133820 236.650024,263.750061 
	C236.878220,263.637817 237.230392,263.746826 237.614563,264.157349 
z"/>
<path fill="#C4C4C4" opacity="1.000000" stroke="none" 
	d="
M245.730194,229.139709 
	C244.429764,229.058136 243.129349,228.976562 241.390457,228.477432 
	C239.523895,225.608948 238.095795,223.158035 236.667679,220.707123 
	C237.230179,220.481415 237.792679,220.255707 238.667542,220.051910 
	C240.291412,224.799011 242.261154,228.006760 248.265472,226.211700 
	C251.037094,225.383087 254.298645,226.193253 257.682861,226.069733 
	C257.497284,226.712708 256.966888,227.546341 256.219055,228.601669 
	C254.626053,228.867416 253.250473,228.911484 251.019592,228.974182 
	C248.686249,229.041794 247.208221,229.090744 245.730194,229.139709 
z"/>
<path fill="#969696" opacity="1.000000" stroke="none" 
	d="
M220.267242,217.043915 
	C219.700562,215.690338 219.357925,214.358353 218.940979,212.698380 
	C220.009918,210.909363 221.153198,209.448318 222.777115,207.373047 
	C225.814011,210.502228 228.353119,213.118484 230.892212,215.734741 
	C230.804794,216.168793 230.717361,216.602844 230.629929,217.036896 
	C227.680099,217.036896 224.730286,217.036896 221.360199,217.069580 
	C220.939957,217.102264 220.491287,217.065475 220.267242,217.043915 
z"/>
<path fill="#9E9E9E" opacity="1.000000" stroke="none" 
	d="
M236.336533,220.797943 
	C238.095795,223.158035 239.523895,225.608948 241.007782,228.395142 
	C240.288712,228.799667 239.513870,228.868912 238.349091,228.959824 
	C235.092133,227.968460 232.225113,226.955429 228.914734,225.927002 
	C230.982727,224.237320 233.494049,222.563049 236.336533,220.797943 
z"/>
<path fill="#757574" opacity="1.000000" stroke="none" 
	d="
M237.010681,236.896027 
	C237.416718,237.678268 237.526138,238.512863 237.488525,239.749359 
	C236.618805,239.620865 235.896149,239.090454 235.173508,238.560043 
	C235.687027,238.022827 236.200562,237.485596 237.010681,236.896027 
z"/>
<path fill="#757574" opacity="1.000000" stroke="none" 
	d="
M237.546448,244.933487 
	C237.812698,245.111771 237.883835,245.288437 237.926819,245.749344 
	C237.622925,245.855682 237.389786,245.633102 237.080200,245.152664 
	C236.961151,244.939453 237.351334,244.931854 237.546448,244.933487 
z"/>
<path fill="#555555" opacity="1.000000" stroke="none" 
	d="
M237.921906,274.984985 
	C239.989090,274.306854 242.088348,273.646149 244.558960,272.961456 
	C245.027283,273.366272 245.124237,273.795105 245.165161,274.550110 
	C242.886627,276.165741 240.664154,277.455200 238.115570,278.871582 
	C237.258820,278.479218 236.728149,277.959930 236.508713,277.147461 
	C237.202408,276.213135 237.584869,275.571991 237.967346,274.930847 
	C237.967331,274.930847 237.953979,275.002441 237.921906,274.984985 
z"/>
<path fill="#A8A8A8" opacity="1.000000" stroke="none" 
	d="
M237.701355,275.024292 
	C237.584869,275.571991 237.202408,276.213135 236.490723,276.862793 
	C236.586121,276.286743 237.010742,275.702240 237.701355,275.024292 
z"/>
<path fill="#A8A8A8" opacity="1.000000" stroke="none" 
	d="
M245.781982,229.583710 
	C247.208221,229.090744 248.686249,229.041794 250.607635,229.008453 
	C250.952332,232.046448 250.853668,235.068817 250.287079,238.544556 
	C248.580109,239.006592 247.341049,239.015259 246.101990,239.023926 
	C246.012589,236.025192 245.923172,233.026443 245.781982,229.583710 
z"/>
<path fill="#CEAB8A" opacity="1.000000" stroke="none" 
	d="
M246.017426,239.430054 
	C247.341049,239.015259 248.580109,239.006592 250.190430,238.990173 
	C250.634445,239.790100 250.990631,240.711227 250.722046,241.382324 
	C250.128998,242.864075 249.221298,244.219894 248.441956,245.627075 
	C247.593018,244.185333 246.698425,242.767349 245.926682,241.285400 
	C245.729233,240.906250 245.920303,240.324738 246.017426,239.430054 
z"/>
</svg>